<?xml version="1.0" standalone="no"?>
<!DOCTYPE svg PUBLIC "-//W3C//DTD SVG 20010904//EN"
 "http://www.w3.org/TR/2001/REC-SVG-20010904/DTD/svg10.dtd">
<svg version="1.0" xmlns="http://www.w3.org/2000/svg"
 width="256.000000pt" height="256.000000pt" viewBox="0 0 256.000000 256.000000"
 preserveAspectRatio="xMidYMid meet">
<metadata>
Created by potrace 1.14, written by Peter Selinger 2001-2017
</metadata>
<g transform="translate(0.000000,256.000000) scale(0.100000,-0.100000)"
fill="#000000" stroke="none">
<path d="M1086 2089 c-27 -4 -63 -10 -80 -12 -149 -21 -319 -101 -416 -197
-103 -102 -170 -264 -170 -415 0 -44 24 -85 50 -85 6 0 10 -30 10 -70 0 -60
-3 -70 -17 -71 -67 -3 -116 -29 -159 -86 -77 -102 -42 -253 72 -308 l41 -20 5
-90 c5 -101 24 -149 80 -201 77 -73 27 -69 778 -69 673 0 675 0 715 22 96 52
137 123 143 250 4 84 6 92 26 97 12 3 40 21 63 41 86 74 96 205 21 291 -42 48
-89 71 -150 73 -15 1 -18 11 -18 70 0 61 3 70 20 76 34 11 43 42 36 124 -14
156 -64 268 -166 371 -87 88 -238 165 -360 185 -19 3 -42 8 -50 10 -48 13 -92
17 -250 19 -96 2 -197 0 -224 -5z"/>
</g>
</svg>
